<svg height="512" viewBox="0 0 60 60" width="512" xmlns="http://www.w3.org/2000/svg"><g id="Page-1" fill="none" fill-rule="evenodd"><g id="032---Group-Mobile-Video-Call" fill="rgb(0,0,0)" fill-rule="nonzero" transform="translate(0 -1)"><path id="Shape" d="m55.96 36.666c.9557609-1.0453282 1.2827309-2.52043.8582011-3.8717125s-1.5363488-2.3743627-2.9182011-2.6852875c-.8760022-10.8913933-8.9899338-19.8204981-19.748-21.732-.3727174-.27602459-.7720255-.51420245-1.192-.711 1.4525988-1.59814476 1.3743059-4.06079326-.1768739-5.56344138-1.5511797-1.50264813-4.0150725-1.50264813-5.5662522 0-1.5511798 1.50264812-1.6294727 3.96529662-.1768739 5.56344138-.4199745.19679755-.8192826.43497541-1.192.711-10.7561002 1.9135317-18.86753453 10.842149-19.743 21.732-1.3827054.3095624-2.49589503 1.3320919-2.92152279 2.6835889-.42562777 1.351497-.09926636 2.8273852.85652279 3.8734111-2.46155929 1.148631-4.03636107 3.6176395-4.04 6.334 0 1.1045695.8954305 2 2 2h7.84c1.852986 2.8668157 4.2934431 5.3076137 7.16 7.161v5.839c0 1.6568542 1.3431458 3 3 3h20c1.6568542 0 3-1.3431458 3-3v-5.839c2.8665569-1.8533863 5.307014-4.2941843 7.16-7.161h7.84c1.1045695 0 2-.8954305 2-2-.0036389-2.7163605-1.5784407-5.185369-4.04-6.334zm-.96-2.666c0 1.1045695-.8954305 2-2 2s-2-.8954305-2-2 .8954305-2 2-2 2 .8954305 2 2zm-27-29c0-1.1045695.8954305-2 2-2s2 .8954305 2 2-.8954305 2-2 2-2-.8954305-2-2zm2 4c2.7598251.00385566 4.9961443 2.2401749 5 5h-10c.0033061-2.7600532 2.2399468-4.99669388 5-5zm-25 25c0-1.1045695.8954305-2 2-2s2 .8954305 2 2-.8954305 2-2 2c-.53043298 0-1.03914081-.2107137-1.41421356-.5857864-.37507276-.3750728-.58578644-.8837806-.58578644-1.4142136zm2 4c2.7598251.0038557 4.9961443 2.2401749 5 5h-10c.00330612-2.7600532 2.23994685-4.9966939 5-5zm15.382-18 1.171 2.342c.5051529 1.0189304 1.5457301 1.6619706 2.683 1.658h7.528c1.1372699.0039706 2.1778471-.6390696 2.683-1.658l1.171-2.342h2.382c.5522847 0 1 .4477153 1 1v33c0 .5522847-.4477153 1-1 1h-20c-.5522847 0-1-.4477153-1-1v-33c0-.5522847.4477153-1 1-1zm2.236 0h10.764l-.724 1.447c-.1681765.3397203-.514933.5542129-.894.553h-7.528c-.379067.0012129-.7258235-.2132797-.894-.553zm15.382 39h-20c-.5522847 0-1-.4477153-1-1v-1.184c.320257.1184378.6585603.1806856 1 .184h20c.3414397-.0033144.679743-.0655622 1-.184v1.184c0 .5522847-.4477153 1-1 1zm3-9.266v-28.734c0-1.6568542-1.3431458-3-3-3h-20c-1.6568542 0-3 1.3431458-3 3v28.734c-1.8169446-1.3352731-3.4194029-2.9400919-4.752-4.759.997283-.1246132 1.7471923-.9699733 1.752-1.975-.0036389-2.7163605-1.5784407-5.185369-4.04-6.334.930113-1.015845 1.265749-2.4419265.8863423-3.765974-.3794066-1.3240475-1.41937868-2.3559477-2.7463423-2.725026.76744545-9.0068261 6.9572258-16.6316649 15.614-19.234-.4688707.9516223-.713138 1.9981399-.714 3.059 0 1.1045695.8954305 2 2 2h10c1.1045695 0 2-.8954305 2-2-.000862-1.0608601-.2451293-2.1073777-.714-3.059 8.6567742 2.6023351 14.8465545 10.2271739 15.614 19.234-1.3262941.3700858-2.3652269 1.4024038-2.7437763 2.7263071-.3785495 1.3239033-.0423924 2.7494068.8877763 3.7646929-2.4631193 1.1474671-4.0396354 3.6167185-4.044 6.334.0048077 1.0050267.754717 1.8503868 1.752 1.975-1.3325971 1.8189081-2.9350554 3.4237269-4.752 4.759zm5-6.734c0-2.7614237 2.2385763-5 5-5s5 2.2385763 5 5z"/><path id="Shape" d="m24 43h6c1.2212191-.0018237 2.3194508-.7437332 2.777-1.876l3.323 1.664c.2793984.1397858.5875845.2123808.9.212 1.1045695 0 2-.8954305 2-2v-8c.0010227-.6947884-.3586134-1.3403254-.9499369-1.7051109-.5913236-.3647854-1.3295969-.396545-1.9500631-.0838891l-3.328 1.664c-.4571777-1.1301897-1.55285-1.87131-2.772-1.875h-6c-1.6568542 0-3 1.3431458-3 3v6c0 1.6568542 1.3431458 3 3 3zm13-10v8l-4-2v-4zm-14 1c0-.5522847.4477153-1 1-1h6c.5522847 0 1 .4477153 1 1v6c0 .5522847-.4477153 1-1 1h-6c-.5522847 0-1-.4477153-1-1z"/><path id="Shape" d="m37 45h-14c-.5522847 0-1 .4477153-1 1s.4477153 1 1 1h14c.5522847 0 1-.4477153 1-1s-.4477153-1-1-1z"/></g></g></svg>